<?xml version="1.0" ?><svg viewBox="0 0 512 512" xmlns="http://www.w3.org/2000/svg"><g id="Wine_menu"><path d="M452.8572,81H269.125V431H452.8518A13.1483,13.1483,0,0,0,466,417.8516V94.1426A13.1425,13.1425,0,0,0,452.8572,81ZM411.3125,374.125h-87.5a13.125,13.125,0,0,1,0-26.25h87.5a13.125,13.125,0,0,1,0,26.25Zm0-70h-87.5a13.125,13.125,0,0,1,0-26.25h87.5a13.125,13.125,0,0,1,0,26.25Zm0-70h-87.5a13.125,13.125,0,0,1,0-26.25h87.5a13.125,13.125,0,0,1,0,26.25Zm0-70h-87.5a13.125,13.125,0,0,1,0-26.25h87.5a13.125,13.125,0,0,1,0,26.25Z"/><path d="M46,94.1133V417.8574A13.1424,13.1424,0,0,0,59.1421,431H242.875V81H59.1133A13.1134,13.1134,0,0,0,46,94.1133ZM93.3806,254.0752c0-21.7007,12.6016-40.3379,30.625-48.4756V133.5H164.87v72.1a53.1811,53.1811,0,0,1,30.625,48.4756V378.5H93.3806Z"/></g></svg>