<?xml version="1.0" encoding="utf-8"?>
<!-- Uploaded to: SVG Repo, www.svgrepo.com, Generator: SVG Repo Mixer Tools -->
<svg width="800px" height="800px" viewBox="0 0 64 64" xmlns="http://www.w3.org/2000/svg" xmlns:xlink="http://www.w3.org/1999/xlink" aria-hidden="true" role="img" class="iconify iconify--emojione" preserveAspectRatio="xMidYMid meet">
<path d="M32 2v10H12v20H2c0 16.6 13.4 30 30 30s30-13.4 30-30S48.6 2 32 2z" fill="#2a5f9e">
</path>
<path d="M32 2c-4.7 0-9.1 1.1-13.1 3v6H11v7.9H5c-1.9 4-3 8.4-3 13.1h12V17l12 15h6v-7.5L23.6 14H32V2z" fill="#ffffff">
</path>
<g fill="#ed4c5c">
<path d="M15.4 14L30 32h2v-4.9L21.4 14z">
</path>
<path d="M32 5H18.9c-6 2.9-11 7.9-13.9 13.9V32h6V11h21V5z">
</path>
</g>
<g fill="#ffffff">
<path d="M8 35.7l2.2-2.7l-.7 3.5l3.5.1l-3.1 1.6L12 41l-3.1-1.4L8 43l-.9-3.4L4 41l2.1-2.8L3 36.6l3.5-.1l-.7-3.5z">
</path>
<path d="M52 20.2l1.8-2.2l-.6 2.8l2.8.1l-2.5 1.3l1.7 2.2l-2.5-1.2L52 26l-.7-2.8l-2.5 1.2l1.7-2.2l-2.5-1.3l2.8-.1l-.6-2.8z">
</path>
<path d="M52 40.2l1.8-2.2l-.6 2.8l2.8.1l-2.5 1.3l1.7 2.2l-2.5-1.2L52 46l-.7-2.8l-2.5 1.2l1.7-2.2l-2.5-1.3l2.8-.1l-.6-2.8z">
</path>
<path d="M42 26.2l1.8-2.2l-.6 2.8l2.8.1l-2.5 1.3l1.7 2.2l-2.5-1.2L42 32l-.7-2.8l-2.5 1.2l1.7-2.2l-2.5-1.3l2.8-.1l-.6-2.8z">
</path>
</g>
</svg>