<?xml version="1.0" encoding="utf-8"?>
<!-- Uploaded to: SVG Repo, www.svgrepo.com, Generator: SVG Repo Mixer Tools -->
<svg width="800px" height="800px" viewBox="0 0 64 64" xmlns="http://www.w3.org/2000/svg" xmlns:xlink="http://www.w3.org/1999/xlink" aria-hidden="true" role="img" class="iconify iconify--emojione" preserveAspectRatio="xMidYMid meet">
<circle cx="32" cy="32" r="30" fill="#ed4c5c">
</circle>
<g fill="#ffe62e">
<path d="M22 28.4l8 5.6l-3-9.2l8-5.8h-9.9L22 10l-3 9H9l8 5.8l-3 9.2z">
</path>
<path d="M35.3 35.3l-2.3.5l2.2.9V39l1.5-1.7l2.2.8l-1.3-1.9l1.4-1.8l-2.3.5l-1.4-1.9z">
</path>
<path d="M38.7 28.5L37 30l2.3-.2l1 2.2l.4-2.3l2.3-.2l-2-1.2l.5-2.3l-1.7 1.5l-2-1.2z">
</path>
<path d="M39.3 20.7L40 23l.7-2.2H43l-1.8-1.4l.7-2.3l-1.9 1.4l-1.8-1.5l.7 2.3l-1.9 1.3z">
</path>
<path d="M35.3 12.7V15l1.4-1.9l2.3.5l-1.4-1.8l1.3-1.9l-2.2.9L35.2 9v2.3l-2.2.9z">
</path>
</g>
</svg>